<?xml version="1.0" encoding="utf-8"?>
<!-- Generator: Adobe Illustrator 22.1.0, SVG Export Plug-In . SVG Version: 6.00 Build 0)  -->
<svg version="1.1" id="Layer_1" xmlns="http://www.w3.org/2000/svg" xmlns:xlink="http://www.w3.org/1999/xlink" x="0px" y="0px"
	 viewBox="0 0 48 48" style="enable-background:new 0 0 48 48;" xml:space="preserve">
<style type="text/css">
	.st0{fill:#FF3A21;}
	.st1{fill:#FFFFFF;}
</style>
<title>facebook</title>
<g>
	<path class="st0" d="M48,36.6c0,6.6-5.4,12-12,12H12c-6.6,0-12-5.4-12-12v-24c0-6.6,5.4-12,12-12h24c6.6,0,12,5.4,12,12V36.6z"/>
	<g>
		<path class="st1" d="M31.9,29.8h1.3c0.3,0,0.6-0.3,0.6-0.6v-4.5h4.5c0.3,0,0.6-0.3,0.6-0.6v-1.3c0-0.3-0.3-0.6-0.6-0.6h-4.5v-4.5
			c0-0.3-0.3-0.6-0.6-0.6h-1.3c-0.3,0-0.6,0.3-0.6,0.6v4.5h-4.5c-0.3,0-0.6,0.3-0.6,0.6v1.3c0,0.3,0.3,0.6,0.6,0.6h4.5v4.5
			C31.3,29.5,31.6,29.8,31.9,29.8z"/>
		<path class="st1" d="M14.1,37.7c1.1,0.3,2.4,0.4,3.7,0.4c1.1,0,2.2-0.2,3.3-0.4c3.2-0.9,5.2-3.2,5.2-5.9c0-2.6-0.8-4.1-3-5.7
			c-1-0.7-1.8-1.7-1.8-2c0-0.6,0-0.8,1.3-1.8c1.6-1.3,2.5-2.9,2.5-4.7c0-1.6-0.5-3-1.3-4h0.6c0.1,0,0.3,0,0.4-0.1l1.8-1.3
			c0.2-0.2,0.3-0.4,0.2-0.7s-0.3-0.4-0.6-0.4h-8c-0.9,0-1.8,0.2-2.6,0.5c-2.9,1-4.9,3.5-4.9,6c0,3.6,2.8,6.3,6.5,6.4
			c-0.1,0.3-0.1,0.6-0.1,0.8c0,0.6,0.1,1.1,0.4,1.6h-0.1c-3.5,0-6.8,1.7-8,4.3c-0.3,0.7-0.5,1.4-0.5,2c0,0.7,0.2,1.3,0.5,1.9
			C10.3,36.1,11.9,37.1,14.1,37.7z M14.8,17.5c-0.2-1.3,0.1-2.5,0.8-3.3c0.4-0.5,1-0.7,1.6-0.7h0.1c1.8,0.1,3.4,2,3.8,4.4
			c0.2,1.3-0.1,2.6-0.8,3.3c-0.4,0.5-1,0.7-1.6,0.7l0,0l0,0C16.9,21.9,15.1,19.9,14.8,17.5z M18.2,28.4L18.2,28.4
			c0.7,0,1.2,0.1,1.8,0.3c0.2,0.1,0.4,0.3,0.5,0.4c1.3,0.9,2.1,1.4,2.3,2.3c0.1,0.2,0.1,0.5,0.1,0.7c0,2.3-1.7,3.5-5.2,3.5
			c-2.6,0-4.6-1.6-4.6-3.6C13.1,30.1,15.5,28.4,18.2,28.4z"/>
	</g>
</g>
</svg>
