<svg id="Layer_1" data-name="Layer 1" xmlns="http://www.w3.org/2000/svg" viewBox="0 0 102.42 102.42"><defs><style>.cls-1{fill:#2d80a6;}.cls-2{fill:#fff;}</style></defs><title>instagram</title><rect class="cls-1" width="102.42" height="102.42" rx="25.6" ry="25.6"/><path class="cls-2" d="M164.53,111.12H125.26a12.38,12.38,0,0,0-12.37,12.37v39.27a12.39,12.39,0,0,0,12.37,12.37h39.27a12.39,12.39,0,0,0,12.37-12.37V123.49A12.38,12.38,0,0,0,164.53,111.12Zm3.55,7.38h1.41v10.85l-10.81,0,0-10.84Zm-32.32,18.05a11.25,11.25,0,1,1-2.13,6.57A11.28,11.28,0,0,1,135.76,136.55Zm34.91,26.21a6.14,6.14,0,0,1-6.14,6.13H125.26a6.14,6.14,0,0,1-6.13-6.13V136.55h9.55a17.5,17.5,0,1,0,33.72,6.57,17.33,17.33,0,0,0-1.29-6.57h9.56Z" transform="translate(-93.69 -91.91)"/></svg>