<svg id="logo" xmlns="http://www.w3.org/2000/svg" viewBox="0 0 202.6 179.2"><defs><style>.cls-1,.cls-10,.cls-12,.cls-13,.cls-14,.cls-15,.cls-16,.cls-17,.cls-18,.cls-5{fill:none;}.cls-1{stroke:#9abd4b;}.cls-1,.cls-13,.cls-14,.cls-18,.cls-5,.cls-9{stroke-miterlimit:10;}.cls-1,.cls-5{stroke-width:4.41px;}.cls-2{fill:#5d7031;}.cls-3,.cls-8,.cls-9{fill:#fff;}.cls-3,.cls-9{stroke:#fff;stroke-width:6px;}.cls-12,.cls-15,.cls-16,.cls-17,.cls-3{stroke-linejoin:round;}.cls-4{fill:#666565;}.cls-5{stroke:#51c3c7;}.cls-6{fill:#51c3c7;}.cls-7{fill:#d8ae58;}.cls-11{fill:#666665;}.cls-12,.cls-13,.cls-14{stroke:#666665;}.cls-12,.cls-17{stroke-linecap:round;}.cls-12,.cls-13,.cls-15,.cls-17{stroke-width:2px;}.cls-14{stroke-width:2.1px;}.cls-15,.cls-16,.cls-17,.cls-18{stroke:#d42027;}</style></defs><title>logo</title><circle id="_Path_" data-name=" Path " class="cls-1" cx="104.66" cy="78.72" r="76.51"/><g id="_Group_" data-name=" Group "><path id="_Path_2" data-name=" Path 2" class="cls-2" d="M80.45,63.85h2.24L74.22,46.13,65.75,63.85H68l-2.24,4.68H68l-2.24,4.69h7.41v4a1.05,1.05,0,0,0,1.06,1.06h0a1,1,0,0,0,1.06-1v-4h7.41l-2.24-4.69h2.24Z" transform="translate(0 0.01)"/><path id="_Path_3" data-name=" Path 3" class="cls-2" d="M75.28,73.22h7.41l-2.24-4.69h2.24l-2.24-4.68h2.24L74.22,46.13v32.2h0a1,1,0,0,0,1.06-1V73.22Z" transform="translate(0 0.01)"/></g><path id="_Path_4" data-name=" Path 4" class="cls-3" d="M158.33,96.13s-10.3-1.19-14.22,7.61c0,0-1.49,6.15-5.45,8,0,0,12.55-3.47,16.67-6.35,0,0,4.59-5.23,6.35-6.53" transform="translate(0 0.01)"/><g id="_Group_2" data-name=" Group 2"><path id="_Path_5" data-name=" Path 5" class="cls-2" d="M166.78,59.62h3.3L157.59,33.47l-12.5,26.15h3.3l-3.3,6.91h3.3l-3.3,6.89H156v6A1.56,1.56,0,0,0,157.59,81h0a1.56,1.56,0,0,0,1.56-1.56v-6h10.93l-3.3-6.92h3.3Z" transform="translate(0 0.01)"/><path id="_Path_6" data-name=" Path 6" class="cls-2" d="M159.15,73.42h10.93l-3.3-6.92h3.3l-3.3-6.91h3.3L157.59,33.47V81h0a1.56,1.56,0,0,0,1.56-1.56Z" transform="translate(0 0.01)"/></g><g id="_Group_3" data-name=" Group 3"><path id="_Path_7" data-name=" Path 7" class="cls-2" d="M139.71,61.58h1.92l-7.3-15.27L127,61.58H129l-1.93,4H129l-1.93,4h6.39v3.49a.93.93,0,0,0,.91.92h0a.92.92,0,0,0,.92-.92V69.66h6.38l-1.92-4h1.92Z" transform="translate(0 0.01)"/><path id="_Path_8" data-name=" Path 8" class="cls-2" d="M135.25,69.66h6.38l-1.92-4h1.92l-1.92-4h1.92l-7.3-15.27V74.07h0a.92.92,0,0,0,.92-.92Z" transform="translate(0 0.01)"/></g><g id="_Group_4" data-name=" Group 4"><path id="_Path_9" data-name=" Path 9" class="cls-2" d="M57.36,60.51h2.83L49.52,38.89,38.79,60.51h2.83l-2.83,5.72h2.83l-2.83,5.71h9.36v5a1.31,1.31,0,0,0,1.37,1.24h0a1.32,1.32,0,0,0,1.34-1.29v-5h9.36l-2.83-5.71h2.83Z" transform="translate(0 0.01)"/><path id="_Path_10" data-name=" Path 10" class="cls-2" d="M50.83,71.94h9.36l-2.83-5.71h2.83l-2.83-5.72h2.83L49.52,38.89V78.18h0a1.32,1.32,0,0,0,1.34-1.29Z" transform="translate(0 0.01)"/></g><path id="_Path_11" data-name=" Path 11" class="cls-4" d="M70.26,80.57" transform="translate(0 0.01)"/><circle id="_Path_12" data-name=" Path 12" class="cls-5" cx="104.66" cy="78.72" r="76.51"/><g id="_Group_5" data-name=" Group 5"><path id="_Compound_Path_" data-name=" Compound Path " class="cls-6" d="M27.52,119.69l-.92-1.89-11.73,5.71L14,121.68,25.71,116l-.92-1.87,1.94-.94,2.72,5.59Z" transform="translate(0 0.01)"/><path id="_Compound_Path_2" data-name=" Compound Path 2" class="cls-6" d="M33.06,124.9,20,132.67l-1-1.75,6.14-3.65L24,125.42l-6.14,3.66-1-1.75,13.06-7.77,1,1.75-5.07,3,1.09,1.84,5.08-3Z" transform="translate(0 0.01)"/><path id="_Compound_Path_3" data-name=" Compound Path 3" class="cls-6" d="M26.6,136l-1.16-1.6-3.09,1.75-1.13-1.56,13.7-7,1.19,1.65L25.11,140l-1.19-1.66Zm1.58-1.54,4.06-3.69h0l-4.8,2.67Z" transform="translate(0 0.01)"/><path id="_Compound_Path_4" data-name=" Compound Path 4" class="cls-6" d="M43.35,137.94l-11.42,10-1.34-1.52,7-6.17-7.88,5.17-.92-1L35,137.28h0l-7,6.17-1.44-1.61,11.42-10,1.82,2.07-6,7h0l7.71-5Z" transform="translate(0 0.01)"/><path id="_Compound_Path_5" data-name=" Compound Path 5" class="cls-6" d="M44.25,141.77l-2.58,2.7,1.5,1.43-1.5,1.57L40.18,146l-3.42,3.58L39,151.77l-1.49,1.57-3.73-3.55,10.48-11,3.56,3.39-1.5,1.58Z" transform="translate(0 0.01)"/><path id="_Compound_Path_6" data-name=" Compound Path 6" class="cls-6" d="M48.89,148.6l.4-.49c.67-.82.72-1.54.34-1.85a1,1,0,0,0-1.39.24l-.07.11a2.87,2.87,0,0,0-.74,1.8l-.39,3.7a6,6,0,0,1-1.42,3.82c-1.39,1.7-3.23,1.77-4.49.74s-1.51-2.83-.14-4.51l1-1.23,1.59,1.29-.89,1.1c-.59.72-.58,1.32-.17,1.65s1,.19,1.58-.5a3.58,3.58,0,0,0,.79-2l.16-2.87c.23-2,.18-2.65,1.5-4.26s3.1-1.84,4.45-.74,1.42,2.92.14,4.49l-.67.82Z" transform="translate(0 0.01)"/><path id="_Compound_Path_7" data-name=" Compound Path 7" class="cls-6" d="M52.31,164.36,54,158.15c-.24-.15-.49-.3-.55-.35L50.13,163l-1.71-1.08,8.1-12.83,2.87,1.82c1.65,1,1.41,3.16.11,5.21s-2.6,2.74-3.78,2.77l-1.66,6.63Zm2.33-8.5.55.35c1.11.7,1.53.71,2.71-1.16.66-1,1-1.94.32-2.37L57.1,152Z" transform="translate(0 0.01)"/><path id="_Compound_Path_8" data-name=" Compound Path 8" class="cls-6" d="M57.52,167.31l-1.79-1L63,153l1.78,1Z" transform="translate(0 0.01)"/><path id="_Compound_Path_9" data-name=" Compound Path 9" class="cls-6" d="M63.52,170.27l-2-.9,4.08-14.85,2,.91-3.4,10.82h0l6.06-9.59,2,.91Z" transform="translate(0 0.01)"/><path id="_Compound_Path_10" data-name=" Compound Path 10" class="cls-6" d="M74.34,160.63l-1.28,3.51,1.94.71-.74,2-1.94-.7-1.7,4.64,2.9,1.1-.74,2L68,172.13l5.2-14.27,4.62,1.68-.74,2Z" transform="translate(0 0.01)"/><path id="_Compound_Path_11" data-name=" Compound Path 11" class="cls-6" d="M79.31,175.83l-.24-6.41-.63-.18-1.63,5.9-1.94-.53,4-14.65,3.28.91c1.88.52,2.26,2.61,1.62,5-.6,2.17-1.7,3.38-2.81,3.75l.34,6.83Zm-.25-8.8.63.17c1.27.35,1.67.24,2.26-1.9.32-1.17.37-2.14-.4-2.36l-1.27-.35Z" transform="translate(0 0.01)"/><path id="_Compound_Path_12" data-name=" Compound Path 12" class="cls-6" d="M91.22,174.59l-2-.29-.91,3.44-1.9-.28L91,162.78l2,.3.15,15.34-2-.3Zm0-2.21.18-5.48h0L90,172.19Z" transform="translate(0 0.01)"/><path id="_Compound_Path_13" data-name=" Compound Path 13" class="cls-6" d="M102.37,163.91l-1,15.15-2-.14L98,170.1h0l-.61,8.68-2-.14,1-15.15,2.14.14,1.3,8.53h0l.58-8.4Z" transform="translate(0 0.01)"/><path id="_Compound_Path_14" data-name=" Compound Path 14" class="cls-6" d="M107.68,168.23V167c0-.46-.37-1.23-1-1.22s-1,.8-1,1.26l.19,8.76c0,.46.33,1.23,1,1.22s1.14-.75,1.11-2v-2.32h-1.14v-2.17l3-.06.1,4.68c0,2.06-.84,3.95-2.89,4a3.09,3.09,0,0,1-3.16-3c0-.1,0-.21,0-.31l-.19-8.79c0-1.54.74-3.42,3-3.47a3.15,3.15,0,0,1,3.06,3.22.49.49,0,0,0,0,.12v1.19Z" transform="translate(0 0.01)"/><path id="_Compound_Path_15" data-name=" Compound Path 15" class="cls-6" d="M116.85,176.17l.21,2.16-4.69.46-1.47-15.12,2-.2,1.27,13Z" transform="translate(0 0.01)"/><path id="_Compound_Path_16" data-name=" Compound Path 16" class="cls-6" d="M118.92,164.88l.62,3.68,2-.35.36,2.14-2,.35.83,4.88,3.06-.52.36,2.14-5.07.86-2.53-15,4.85-.82.36,2.14Z" transform="translate(0 0.01)"/><path id="_Compound_Path_17" data-name=" Compound Path 17" class="cls-6" d="M130.77,175.63l-3.38-5.45-.63.16,1.5,5.93-2,.49L122.54,162l3.3-.84c1.89-.48,3.26,1.15,3.86,3.5.55,2.19.2,3.78-.59,4.65l3.67,5.76Zm-4.57-7.52.63-.16c1.28-.33,1.57-.63,1-2.77-.3-1.18-.74-2-1.51-1.86l-1.28.33Z" transform="translate(0 0.01)"/><path id="_Compound_Path_18" data-name=" Compound Path 18" class="cls-6" d="M134.62,163l-.21-.6c-.35-1-.94-1.42-1.4-1.26a1,1,0,0,0-.48,1.4v0a3,3,0,0,0,1.15,1.57l2.93,2.31a6,6,0,0,1,2.51,3.23c.72,2.07-.19,3.67-1.73,4.2s-3.2-.2-3.91-2.25l-.52-1.5,1.94-.67.46,1.33c.3.88.82,1.19,1.31,1s.7-.77.41-1.61a3.55,3.55,0,0,0-1.3-1.73l-2.36-1.65c-1.57-1.25-2.16-1.55-2.84-3.52s.07-3.6,1.71-4.17,3.23.33,3.89,2.24l.35,1Z" transform="translate(0 0.01)"/><path id="_Compound_Path_19" data-name=" Compound Path 19" class="cls-6" d="M147.64,165.42l-1.77.86,1.19,3.35-1.73.84-4.52-14.69,1.83-.89,8.74,12.65-1.86.88Zm-1.25-1.83L143.46,159h-.05l1.81,5.18Z" transform="translate(0 0.01)"/><path id="_Compound_Path_20" data-name=" Compound Path 20" class="cls-6" d="M150.76,155.31l-.32-.55c-.54-.91-1.2-1.2-1.62-1a1,1,0,0,0-.26,1.39l.08.1a3,3,0,0,0,1.44,1.32l3.33,1.64a6,6,0,0,1,3.09,2.65c1.12,1.89.55,3.64-.85,4.47s-3.18.44-4.29-1.43l-.8-1.36,1.76-1,.72,1.22c.48.8,1,1,1.49.73s.53-.89.08-1.66a3.65,3.65,0,0,0-1.62-1.44l-2.64-1.13c-1.79-.92-2.42-1.1-3.48-2.89s-.66-3.55.84-4.43,3.23-.32,4.26,1.42l.54.91Z" transform="translate(0 0.01)"/><path id="_Compound_Path_21" data-name=" Compound Path 21" class="cls-6" d="M156.72,151.42l-.37-.51c-.61-.87-1.29-1.11-1.69-.83a1,1,0,0,0-.15,1.41l.09.09a3,3,0,0,0,1.54,1.2l3.45,1.37a6,6,0,0,1,3.3,2.4c1.27,1.79.83,3.58-.5,4.52s-3.13.69-4.38-1.08l-.92-1.3,1.68-1.18.81,1.15c.54.77,1.12.92,1.55.62s.46-.94,0-1.66a3.66,3.66,0,0,0-1.74-1.31l-2.72-.92c-1.85-.77-2.5-.9-3.7-2.6s-.93-3.48.49-4.48,3.2-.58,4.36,1.07l.61.87Z" transform="translate(0 0.01)"/><path id="_Compound_Path_22" data-name=" Compound Path 22" class="cls-6" d="M163.45,144.68l5.61,6.74c1,1.2,1.5,3.22-.07,4.52-1.72,1.44-3.53.51-4.53-.69l-5.61-6.73c-1-1.2-1.56-3.12.17-4.55C160.58,142.67,162.45,143.48,163.45,144.68ZM161.9,146c-.29-.35-1.07-.77-1.52-.4s-.25,1.28,0,1.6l5.6,6.72c.32.38,1.05.81,1.6.35s.16-1.23-.13-1.58Z" transform="translate(0 0.01)"/><path id="_Compound_Path_23" data-name=" Compound Path 23" class="cls-6" d="M168.19,141.8l-.83-.85c-.32-.33-1.11-.64-1.53-.23a1.18,1.18,0,0,0,.14,1.6l6.15,6.24a1.17,1.17,0,0,0,1.6.16c.41-.41.11-1.2-.21-1.53l-.84-.85,1.46-1.43.84.85a3,3,0,0,1-3.86,4.72,2.4,2.4,0,0,1-.45-.45l-6.14-6.26a3.06,3.06,0,0,1,3.81-4.79,2.9,2.9,0,0,1,.52.53l.84.85Z" transform="translate(0 0.01)"/><path id="_Compound_Path_24" data-name=" Compound Path 24" class="cls-6" d="M180,144.92l-1.36,1.5-11.31-10.14,1.36-1.52Z" transform="translate(0 0.01)"/><path id="_Compound_Path_25" data-name=" Compound Path 25" class="cls-6" d="M181.26,137.86l-1.21,1.56,2.53,2.49-1.19,1.51-10.48-11.24,1.26-1.6,13.35,7.55-1.26,1.6Zm-1.92-1.1-4.66-2.89h0l3.89,3.87Z" transform="translate(0 0.01)"/><path id="_Compound_Path_26" data-name=" Compound Path 26" class="cls-6" d="M178.4,125.51l-1.19,1.73L188,134.62l-1.15,1.68-10.75-7.38-1.18,1.71-1.77-1.21,3.52-5.13Z" transform="translate(0 0.01)"/><path id="_Compound_Path_27" data-name=" Compound Path 27" class="cls-6" d="M191.23,129.42l-1,1.75-13-7.82,1-1.74Z" transform="translate(0 0.01)"/><path id="_Compound_Path_28" data-name=" Compound Path 28" class="cls-6" d="M184.52,116.62l7.79,4c1.39.72,2.62,2.39,1.69,4.19-1,2-3,1.85-4.44,1.13l-7.79-4c-1.39-.72-2.64-2.26-1.61-4.26C181.07,115.87,183.1,115.9,184.52,116.62Zm-.91,1.82c-.41-.21-1.29-.3-1.56.22s.27,1.27.63,1.46l7.77,4c.45.23,1.29.33,1.62-.3s-.33-1.2-.73-1.41Z" transform="translate(0 0.01)"/><path id="_Compound_Path_29" data-name=" Compound Path 29" class="cls-6" d="M184.52,108.42l14,5.78-.78,1.88-8.81-1.47h0l8,3.32-.78,1.88-14-5.79.81-2,8.51,1.47h0l-7.78-3.21Z" transform="translate(0 0.01)"/></g><g id="_Group_6" data-name=" Group 6"><g id="_Group_7" data-name=" Group 7"><path id="_Compound_Path_30" data-name=" Compound Path 30" class="cls-4" d="M75.16,133.92H73.64l-.3,2.05H71.85l1.81-8.82h1.58L77.06,136H75.52Zm-.25-1.28-.48-3.16h0l-.5,3.16Z" transform="translate(0 0.01)"/><path id="_Compound_Path_31" data-name=" Compound Path 31" class="cls-4" d="M83.52,127.15V136H81.93l-1.55-5.05h0V136h-1.6v-8.82h1.66L81.9,132h0v-4.89Z" transform="translate(0 0.01)"/><path id="_Compound_Path_32" data-name=" Compound Path 32" class="cls-4" d="M88.46,129.71V129A.76.76,0,0,0,87,129v5.1a.76.76,0,0,0,.79.71c.59,0,.9-.41.9-1.13v-1.35h-.89v-1.26h2.3v2.72a2.14,2.14,0,0,1-2,2.28h-.3c-1.75,0-2.38-1.08-2.38-2V129c0-.89.63-2,2.38-2a2.09,2.09,0,0,1,2.3,1.86s0,.09,0,.14v.7Z" transform="translate(0 0.01)"/><path id="_Compound_Path_33" data-name=" Compound Path 33" class="cls-4" d="M95.52,134.71V136H91.88v-8.82h1.57v7.56Z" transform="translate(0 0.01)"/><path id="_Compound_Path_34" data-name=" Compound Path 34" class="cls-4" d="M98.81,128.42v2.17h1.6v1.26h-1.6v2.87h2.41V136h-4v-8.82H101v1.26Z" transform="translate(0 0.01)"/><path id="_Compound_Path_35" data-name=" Compound Path 35" class="cls-4" d="M106.52,136l-1.5-3.55h-.5V136H103v-8.82h2.64c1.51,0,2.23,1.11,2.23,2.52a2.64,2.64,0,0,1-1.32,2.53l1.66,3.77Zm-2-4.89h.5c1,0,1.3-.13,1.3-1.41,0-.71-.17-1.26-.78-1.26h-1Z" transform="translate(0 0.01)"/><path id="_Compound_Path_36" data-name=" Compound Path 36" class="cls-4" d="M112.52,129.62v-.37c0-.61-.32-1-.7-1a.67.67,0,0,0-.71.65v0a1.45,1.45,0,0,0,.44,1.08l1.58,1.8a3,3,0,0,1,1,2.25,2.08,2.08,0,0,1-2.14,2h-.19a2,2,0,0,1-2.28-1.68c0-.1,0-.21,0-.32v-.92h1.59V134c0,.54.3.8.71.8a.71.71,0,0,0,.71-.71s0-.06,0-.09a1.75,1.75,0,0,0-.51-1.2l-1.31-1.35c-.84-1-1.19-1.26-1.19-2.47a2.32,2.32,0,0,1,4.59,0v.62Z" transform="translate(0 0.01)"/><path id="_Compound_Path_37" data-name=" Compound Path 37" class="cls-4" d="M115.94,134.42h1.58V136H116Z" transform="translate(0 0.01)"/><path id="_Compound_Path_38" data-name=" Compound Path 38" class="cls-4" d="M124,129v5.09a2.08,2.08,0,0,1-2.15,2h-.14c-1.73,0-2.35-1.08-2.35-2V129a2.36,2.36,0,0,1,4.63-.18C124,128.88,124,128.94,124,129Zm-1.58,0a.75.75,0,0,0-1.49,0v5.08a.76.76,0,0,0,.77.75h0a.79.79,0,0,0,.71-.75Z" transform="translate(0 0.01)"/><path id="_Compound_Path_39" data-name=" Compound Path 39" class="cls-4" d="M129.39,136l-1.5-3.55h-.5V136h-1.57v-8.82h2.64c1.51,0,2.23,1.11,2.23,2.52a2.64,2.64,0,0,1-1.33,2.53L131,136Zm-2-4.89h.5c1,0,1.3-.13,1.3-1.41,0-.71-.17-1.26-.78-1.26h-1Z" transform="translate(0 0.01)"/><path id="_Compound_Path_40" data-name=" Compound Path 40" class="cls-4" d="M135.57,129.71V129a.76.76,0,0,0-1.52,0v5.1a.77.77,0,0,0,.8.71c.59,0,.89-.41.89-1.13v-1.35h-.88v-1.26h2.29v2.72a2.14,2.14,0,0,1-2,2.28h-.31c-1.75,0-2.38-1.08-2.38-2V129c0-.89.63-2,2.38-2a2.08,2.08,0,0,1,2.29,1.85c0,.05,0,.1,0,.15v.7Z" transform="translate(0 0.01)"/></g></g><g id="_Group_8" data-name=" Group 8"><g id="_Group_9" data-name=" Group 9"><path id="_Compound_Path_41" data-name=" Compound Path 41" class="cls-4" d="M80.72,31.26v2.41h1.8v1.4h-1.8v3.2H83.4v1.4H79V29.86H83.2v1.4Z" transform="translate(0 0.01)"/><path id="_Compound_Path_42" data-name=" Compound Path 42" class="cls-4" d="M88.52,32.61V32.2c0-.69-.36-1.06-.78-1.06a.76.76,0,0,0-.79.73v0a1.65,1.65,0,0,0,.49,1.2l1.75,2a3.33,3.33,0,0,1,1.14,2.5,2.32,2.32,0,0,1-2.4,2.22l-.19,0a2.27,2.27,0,0,1-2.53-2,1.79,1.79,0,0,1,0-.23v-1H87v.91c0,.61.34.9.79.9a.81.81,0,0,0,.79-.81s0-.06,0-.09A2,2,0,0,0,88,36.19l-1.43-1.53c-.92-1.09-1.32-1.4-1.32-2.74a2.58,2.58,0,0,1,5.1,0v.69Z" transform="translate(0 0.01)"/><path id="_Compound_Path_43" data-name=" Compound Path 43" class="cls-4" d="M97.45,31.25H95.64v8.42H93.89V31.25H92.1V29.86h5.35Z" transform="translate(0 0.01)"/><path id="_Compound_Path_44" data-name=" Compound Path 44" class="cls-4" d="M98.52,37.91h1.76v1.76H98.52Z" transform="translate(0 0.01)"/><path id="_Compound_Path_45" data-name=" Compound Path 45" class="cls-4" d="M106.22,29.86H108v9.81h-1.75V31.26h-.79v-1Z" transform="translate(0 0.01)"/><path id="_Compound_Path_46" data-name=" Compound Path 46" class="cls-4" d="M110,33.68V32.31a2.46,2.46,0,0,1,2.32-2.6,3.39,3.39,0,0,1,.45,0,2.33,2.33,0,0,1,2.56,2.07c0,.05,0,.09,0,.13v4.93a2.73,2.73,0,0,1-2.52,2.92h-.14a2.26,2.26,0,0,1-2.43-2.07.57.57,0,0,1,0-.13v-.77h1.68v.77a.76.76,0,0,0,.72.8h0c.67,0,.89-.74.89-1.53V35.31a1.45,1.45,0,0,1-1.19.55A2.15,2.15,0,0,1,110,34,2.71,2.71,0,0,1,110,33.68Zm1.79,0a.82.82,0,0,0,.85.79h0c.56,0,.92-.27.92-.52V32a.86.86,0,0,0-.8-.81c-.7,0-1,.37-1,1.17C111.79,32.42,111.78,33.56,111.78,33.68Z" transform="translate(0 0.01)"/><path id="_Compound_Path_47" data-name=" Compound Path 47" class="cls-4" d="M123,36.86a2.83,2.83,0,0,1-5.65.34,1.93,1.93,0,0,1,0-.34A2.53,2.53,0,0,1,119,34.42a2.48,2.48,0,0,1-1.29-2.17,2.27,2.27,0,0,1,2-2.47,2.67,2.67,0,0,1,.4,0,2.29,2.29,0,0,1,2.54,2,2.36,2.36,0,0,1,0,.46,2.45,2.45,0,0,1-1.29,2.17A2.55,2.55,0,0,1,123,36.86Zm-1.79,0c0-.91-.24-1.59-1-1.75-.82.16-1.06.84-1.06,1.75s.35,1.53,1.2,1.53C120.94,38.42,121.2,37.58,121.2,36.86Zm-1.89-4.53a.91.91,0,1,0,1.7,0c0-.7-.28-1.19-.82-1.19S119.31,31.64,119.31,32.33Z" transform="translate(0 0.01)"/><path id="_Compound_Path_48" data-name=" Compound Path 48" class="cls-4" d="M130.33,35.84v1.37a2.44,2.44,0,0,1-2.29,2.6,2.27,2.27,0,0,1-.52,0,2.32,2.32,0,0,1-2.56-2c0-.05,0-.1,0-.15V32.68a2.73,2.73,0,0,1,2.52-2.94h.12A2.25,2.25,0,0,1,130,31.79a.66.66,0,0,1,0,.14v.68h-1.7V32a.76.76,0,0,0-.69-.81h-.06c-.68,0-.87.75-.87,1.54v1.54a1.35,1.35,0,0,1,1.19-.55,2.14,2.14,0,0,1,2.4,1.84A1.83,1.83,0,0,1,130.33,35.84Zm-1.79,0a.81.81,0,0,0-.85-.77h0c-.54,0-.89.25-.89.51v2a.84.84,0,0,0,.8.8c.67,0,1-.38,1-1.18,0-.1,0-1.22,0-1.36Z" transform="translate(0 0.01)"/></g></g><g id="_Group_10" data-name=" Group 10"><circle id="_Path_13" data-name=" Path 13" class="cls-7" cx="104.75" cy="14.12" r="3.91"/><ellipse id="_Path_14" data-name=" Path 14" class="cls-8" cx="103.01" cy="11.87" rx="0.76" ry="0.47" transform="translate(15.99 68.27) rotate(-39.52)"/></g><g id="_Group_11" data-name=" Group 11"><circle id="_Path_15" data-name=" Path 15" class="cls-7" cx="82.59" cy="19.31" r="3.91"/><ellipse id="_Path_16" data-name=" Path 16" class="cls-8" cx="80.83" cy="17.06" rx="0.76" ry="0.47" transform="translate(7.62 55.34) rotate(-39.52)"/></g><g id="_Group_12" data-name=" Group 12"><circle id="_Path_17" data-name=" Path 17" class="cls-7" cx="126.15" cy="19.31" r="3.91"/><ellipse id="_Path_18" data-name=" Path 18" class="cls-8" cx="124.4" cy="17.06" rx="0.76" ry="0.47" transform="translate(17.58 83.07) rotate(-39.52)"/></g><ellipse id="_Path_19" data-name=" Path 19" class="cls-8" cx="82.59" cy="20.6" rx="1.98" ry="1.04"/><ellipse id="_Path_20" data-name=" Path 20" class="cls-8" cx="104.75" cy="15.46" rx="1.98" ry="1.04"/><ellipse id="_Path_21" data-name=" Path 21" class="cls-8" cx="126.15" cy="20.6" rx="1.98" ry="1.04"/><path id="_Path_22" data-name=" Path 22" class="cls-9" d="M116.89,70s-2.85-1.51-4.25-1.56c0,0-11.15-10.55-13.74-12,0,0-6.74,11-9.7,11.89,0,0-.82,1,2.67,1.26,0,0,3.3,0,3.64.39,0,0,1.16.43,1.07,1.06" transform="translate(0 0.01)"/><path id="_Path_23" data-name=" Path 23" class="cls-9" d="M69.3,72.5A29.15,29.15,0,0,0,56.46,69s-2.33.5-4.16,4.33c0,0,0,.67,1.16,1.34" transform="translate(0 0.01)"/><path id="_Path_24" data-name=" Path 24" class="cls-9" d="M49,90.65c-1.5-.23-13.19,4.77-13.19,4.77C12.19,110.18,3,108,3,108c0-5,8.94-19.19,8.94-19.19,4.69-5.76,1.92-9.6,1.92-9.6C3.4,57.66,4.69,57.54,4.69,57.54c5.77-.12,27.94,10.14,27.94,10.14a105.51,105.51,0,0,0,10.45,4.74l5.1,2c1.46.84,13.21.5,13.21.5,23.59-6.77,94.07-6.31,94.07-6.31l7.78.57s30.44,3.68,35.06,11.93c0,0-7.23,3.77-11.48,7.77,0,0,6.11-.65,7.48-1l5.3-.41s.41.43-7.67,6.28a81,81,0,0,1-12.5,4.75l-7.33,1.55c-6,1.51-11.69,4.38-16.77,5.42,0,0-14.73,3-39,1.32s-16.63-2.73-35.71-7.34S61,92.57,49,90.65Z" transform="translate(0 0.01)"/><path id="_Path_25" data-name=" Path 25" class="cls-9" d="M116.31,100.42s-3.62,15.24-10.26,17.36a26,26,0,0,1-5.1-8.4A28.82,28.82,0,0,1,99.26,103s.3-2.42,2.26-2.57c0,0,3.17,1.06,4.68,0" transform="translate(0 0.01)"/><path id="_Path_26" data-name=" Path 26" class="cls-9" d="M76.52,97.05a39,39,0,0,1-9.8,10.09s-2.81,3-4.06,2.71c-.74-.17-.28-2.15-.1-4.88a22.07,22.07,0,0,0-5.42-8.65s-1.83-1.46,0-2.32c0,0,.37.13,5-1" transform="translate(0 0.01)"/><g id="_Group_13" data-name=" Group 13"><path id="_Path_27" data-name=" Path 27" class="cls-10" d="M38.79,95" transform="translate(0 0.01)"/></g><g id="_Group_14" data-name=" Group 14"><path id="_Path_28" data-name=" Path 28" class="cls-10" d="M38.79,69.61" transform="translate(0 0.01)"/></g><g id="_Group_15" data-name=" Group 15"><polygon id="_Path_29" data-name=" Path 29" class="cls-11" points="8.01 64.58 29.42 72.78 7.38 66.47 8.01 64.58"/></g><g id="_Group_16" data-name=" Group 16"><polygon id="_Path_30" data-name=" Path 30" class="cls-11" points="12.28 74.67 23.75 77 12.05 76.67 12.28 74.67"/></g><g id="_Group_17" data-name=" Group 17"><polygon id="_Path_31" data-name=" Path 31" class="cls-11" points="13.44 85.23 23.75 83.97 13.88 87.19 13.44 85.23"/></g><g id="_Group_18" data-name=" Group 18"><polygon id="_Path_32" data-name=" Path 32" class="cls-11" points="10.24 90.89 27.42 88.06 10.68 92.83 10.24 90.89"/></g><g id="_Group_19" data-name=" Group 19"><polygon id="_Path_33" data-name=" Path 33" class="cls-11" points="6.26 97.19 28.42 90.78 6.9 99.08 6.26 97.19"/></g><g id="_Group_20" data-name=" Group 20"><polygon id="_Path_34" data-name=" Path 34" class="cls-11" points="3.25 102.72 28.15 95.03 3.91 104.61 3.25 102.72"/></g><path id="_Path_35" data-name=" Path 35" class="cls-11" d="M185.89,78.89a.86.86,0,0,0-.64-.83c-.07,0-.54-.16-.67-.18a2.11,2.11,0,0,0-1,0,3.58,3.58,0,0,0-1.1.42,2,2,0,0,0-1,1,1.13,1.13,0,0,0,.28,1.37c.89.43,1.44,1.13,2.44.85a1.18,1.18,0,0,0,.88-.37,1.88,1.88,0,0,0,.48-.94,2,2,0,0,0,.21-.57" transform="translate(0 0.01)"/><path id="_Path_36" data-name=" Path 36" class="cls-12" d="M43.21,91.85s4.59-6.26,44.91,9.76c0,0-.76-.11,11.14,3.3" transform="translate(0 0.01)"/><path id="_Path_37" data-name=" Path 37" class="cls-13" d="M114.35,106.62c5.55.2,16.6.58,24.31.47,0,0,1.61,0,4.24-.11" transform="translate(0 0.01)"/><g id="_Group_21" data-name=" Group 21"><path id="_Path_38" data-name=" Path 38" class="cls-11" d="M158.32,96.23a16.76,16.76,0,0,0-4.24.34c-.35.06-.69.17-1,.25s-.67.21-1,.31a9.4,9.4,0,0,0-1,.39,8.25,8.25,0,0,0-1,.45c-.3.18-.62.33-.9.53l-.85.6a10.13,10.13,0,0,0-.79.68,4.52,4.52,0,0,0-.72.73c-.22.27-.46.51-.67.79l-.57.86a15.28,15.28,0,0,0-1,1.82v-.1a18.74,18.74,0,0,1-1.91,4.79,12.51,12.51,0,0,1-1.57,2.12,7.82,7.82,0,0,1-1,.91,4.49,4.49,0,0,1-.57.4l-.61.35-.55-1.5c2.82-.86,5.62-1.88,8.4-2.89,1.38-.52,2.76-1,4.12-1.56.68-.26,1.35-.55,2-.84a13.94,13.94,0,0,0,1.87-1l-.14.13c1.06-1.1,2.16-2.16,3.29-3.2.56-.52,1.15-1,1.74-1.5a15.77,15.77,0,0,1,1.88-1.36.12.12,0,0,1,.14,0,.11.11,0,0,1,0,.13,44,44,0,0,0-2.94,3.46l-2.84,3.54a.49.49,0,0,1-.13.12h0c-.33.23-.66.47-1,.68l-1,.59c-.68.36-1.36.71-2.06,1s-1.39.61-2.09.88-1.41.54-2.13.77c-1.42.49-2.86.93-4.31,1.33s-2.88.8-4.35,1.17a.8.8,0,0,1-.56-1.49h0l.48-.25a2.74,2.74,0,0,0,.46-.29,6.5,6.5,0,0,0,.87-.7,11.57,11.57,0,0,0,1.46-1.81,15.15,15.15,0,0,0,1.13-2.1,16.77,16.77,0,0,0,.83-2.24v-.06h0a18.79,18.79,0,0,1,1.14-1.93l.66-.91c.24-.29.52-.54.77-.81a5.36,5.36,0,0,1,.83-.75c.3-.23.57-.48.88-.68l1-.59c.32-.19.66-.32,1-.49a9.63,9.63,0,0,1,1-.42,9.06,9.06,0,0,1,1-.34c.35-.09.7-.21,1.06-.27s.71-.15,1.07-.19a17.52,17.52,0,0,1,4.34-.09.09.09,0,0,1,.09.09v0A.12.12,0,0,1,158.32,96.23Z" transform="translate(0 0.01)"/></g><g id="_Group_22" data-name=" Group 22"><path id="_Path_39" data-name=" Path 39" class="cls-11" d="M116.89,70c-.71-.28-1.44-.52-2.16-.74-.35-.11-.72-.2-1.08-.28a4.21,4.21,0,0,0-1-.12h-.13l-.15-.12c-2.36-1.93-4.67-3.9-7-5.86-1.15-1-2.31-2-3.48-2.91-.57-.49-1.15-1-1.74-1.42-.29-.23-.58-.46-.87-.67s-.58-.39-.85-.56L99.76,57c-.68,1.12-1.41,2.19-2.14,3.27s-1.49,2.18-2.3,3.18-1.63,2-2.54,3a13.85,13.85,0,0,1-1.47,1.4,8.48,8.48,0,0,1-.85.63,3.63,3.63,0,0,1-1.07.51l.32-.21a.26.26,0,0,0,.07-.15.33.33,0,0,0,0-.14h0l0,.06a1.23,1.23,0,0,0,.25.14l.33.13a13.79,13.79,0,0,0,1.55.33h0a14.79,14.79,0,0,1,1.87.18,4.29,4.29,0,0,1,.93.15,3.59,3.59,0,0,1,.47.12l.25.09a.7.7,0,0,1,.29.19l-.09-.06a2.47,2.47,0,0,1,.69.51.82.82,0,0,1,.3.76.73.73,0,0,0-.45-.58,3,3,0,0,0-.7-.28l-.09-.06H93.78a15.74,15.74,0,0,0-1.82.07h0A13.11,13.11,0,0,1,90.19,70l-.47-.13a3.16,3.16,0,0,1-.5-.22,1.35,1.35,0,0,1-.54-.57,1.09,1.09,0,0,1-.09-.56,1.15,1.15,0,0,1,.23-.53l.08-.11.24-.1a4.48,4.48,0,0,0,1.29-1,17.3,17.3,0,0,0,1.09-1.46c.8-1,1.56-2,2.29-3s1.46-2.1,2.16-3.16S97.36,57,98,56l.54-.85.79.5a12,12,0,0,1,1,.71c.33.24.63.48.93.73.61.49,1.19,1,1.77,1.49,1.15,1,2.26,2.06,3.37,3.1,2.2,2.12,4.35,4.28,6.42,6.52l-.27-.12a5.6,5.6,0,0,1,1.2.32,10.18,10.18,0,0,1,1.06.49A17,17,0,0,1,116.89,70Z" transform="translate(0 0.01)"/></g><g id="_Group_23" data-name=" Group 23"><path id="_Path_40" data-name=" Path 40" class="cls-11" d="M111.46,70,99.58,59.42l12.53,9.91a.5.5,0,0,1-.62.78Z" transform="translate(0 0.01)"/></g><g id="_Group_24" data-name=" Group 24"><path id="_Path_41" data-name=" Path 41" class="cls-11" d="M106.65,70l-7.87-7.66,8.54,6.92a.49.49,0,0,1,.07.7.49.49,0,0,1-.7.08Z" transform="translate(0 0.01)"/></g><g id="_Group_25" data-name=" Group 25"><path id="_Path_42" data-name=" Path 42" class="cls-11" d="M102.36,69.63,97.52,65,103,68.86a.5.5,0,0,1,.12.7h0a.51.51,0,0,1-.7.12Z" transform="translate(0 0.01)"/></g><g id="_Group_26" data-name=" Group 26"><path id="_Path_43" data-name=" Path 43" class="cls-11" d="M98.71,70.21l-3.9-3.68,4.51,2.89a.49.49,0,0,1,.17.67v0a.5.5,0,0,1-.7.16Z" transform="translate(0 0.01)"/></g><g id="_Group_27" data-name=" Group 27"><path id="_Path_44" data-name=" Path 44" class="cls-11" d="M69.3,72.5c-1.1-.34-2.16-.64-3.24-.91-.53-.14-1.07-.25-1.6-.38s-1.07-.22-1.6-.34-1.07-.22-1.61-.29-1.07-.18-1.6-.25-1.08-.13-1.62-.21L56.41,70h.26l-.2.06-.28.12a4.4,4.4,0,0,0-.56.31,9.62,9.62,0,0,0-1.06.85,10,10,0,0,0-1,1.06,11.55,11.55,0,0,0-.88,1.2v-.21h0v.06a.49.49,0,0,0,0,.17,1.94,1.94,0,0,0,.15.36,4.33,4.33,0,0,0,.53.74,2.72,2.72,0,0,1-.92-.36A1.82,1.82,0,0,1,52,74a1.46,1.46,0,0,1-.17-.24l-.08-.16a.54.54,0,0,1-.05-.22h0l.05-.16a14.67,14.67,0,0,1,.74-1.55,11.52,11.52,0,0,1,.89-1.41A7,7,0,0,1,54.61,69a5.4,5.4,0,0,1,.74-.51l.42-.22a2.1,2.1,0,0,1,.53-.19h.22A24.89,24.89,0,0,1,60,68.4a24.11,24.11,0,0,1,3.35.83,20.83,20.83,0,0,1,3.21,1.32A13.12,13.12,0,0,1,69.3,72.5Z" transform="translate(0 0.01)"/></g><path id="_Path_45" data-name=" Path 45" class="cls-11" d="M152.79,75.29l-.12-.18a.57.57,0,0,0-.45-.58l-.47-.14a1.75,1.75,0,0,0-.72,0,2.68,2.68,0,0,0-.77.3,2.45,2.45,0,0,0-.83,1c-.16.25-.2.64.08.77a2.86,2.86,0,0,0,2,.53.88.88,0,0,0,.63-.26,1.38,1.38,0,0,0,.33-.66,1.49,1.49,0,0,0,.15-.4C152.69,75.69,152.83,75.42,152.79,75.29Z" transform="translate(0 0.01)"/><path id="_Path_46" data-name=" Path 46" class="cls-11" d="M138.42,75.42a.41.41,0,0,0-.07-.11.35.35,0,0,0-.27-.35l-.28-.08a1.09,1.09,0,0,0-.44,0,2.07,2.07,0,0,0-.47.18,1.43,1.43,0,0,0-.5.59c-.09.15-.12.39,0,.47a1.81,1.81,0,0,0,1.19.32.55.55,0,0,0,.38-.16.76.76,0,0,0,.2-.4,1.17,1.17,0,0,0,.09-.24C138.36,75.68,138.45,75.5,138.42,75.42Z" transform="translate(0 0.01)"/><path id="_Path_47" data-name=" Path 47" class="cls-11" d="M64.17,72.11A.75.75,0,0,0,64.1,72a.35.35,0,0,0-.27-.35l-.31-.08a.82.82,0,0,0-.44,0,1.35,1.35,0,0,0-.47.18,1.37,1.37,0,0,0-.5.59c-.09.15-.12.38,0,.46a1.74,1.74,0,0,0,1.19.32.5.5,0,0,0,.38-.15.76.76,0,0,0,.2-.4,1.17,1.17,0,0,0,.09-.24C64.11,72.35,64.2,72.16,64.17,72.11Z" transform="translate(0 0.01)"/><path id="_Path_48" data-name=" Path 48" class="cls-11" d="M56.31,73.14v-.08a.23.23,0,0,0-.17-.22H56a.45.45,0,0,0-.28,0,.79.79,0,0,0-.3.12.88.88,0,0,0-.32.37c-.06.1-.08.25,0,.3a1.17,1.17,0,0,0,.77.21.35.35,0,0,0,.24-.1.5.5,0,0,0,.13-.26.44.44,0,0,0,.06-.16S56.33,73.17,56.31,73.14Z" transform="translate(0 0.01)"/><path id="_Path_49" data-name=" Path 49" class="cls-11" d="M59.29,71.14v-.06a.17.17,0,0,0-.13-.16H59a.74.74,0,0,0-.21,0,.85.85,0,0,0-.22.09.72.72,0,0,0-.24.28c0,.07,0,.18,0,.21a.8.8,0,0,0,.56.16.25.25,0,0,0,.18-.08.34.34,0,0,0,.09-.19.21.21,0,0,0,0-.11S59.31,71.16,59.29,71.14Z" transform="translate(0 0.01)"/><path id="_Path_50" data-name=" Path 50" class="cls-14" d="M155.33,105.42c5.08-1,10.75-3.91,16.77-5.42l7.33-1.55a81,81,0,0,0,12.5-4.75c8.08-5.85,7.67-6.28,7.67-6.28l-5.3.41c-1.37.37-7.48,1-7.48,1,4.25-4,11.48-7.77,11.48-7.77-4.62-8.25-35.06-11.93-35.06-11.93l-7.78-.57S85,68.1,61.39,74.87c0,0-11.75.34-13.21-.5l-5.1-2a108.65,108.65,0,0,1-10.45-4.7S10.46,57.42,4.69,57.54c0,0-1.29.12,9.17,21.66,0,0,2.77,3.84-1.92,9.6C11.94,88.8,3,103,3,108c0,0,9.19,2.19,32.83-12.62,0,0,11.7-5,13.19-4.72" transform="translate(0 0.01)"/><path id="_Path_51" data-name=" Path 51" class="cls-15" d="M192.22,86.56" transform="translate(0 0.01)"/><path id="_Path_52" data-name=" Path 52" class="cls-11" d="M143.05,81l-.07-.12a.35.35,0,0,0-.27-.35l-.29-.08a.79.79,0,0,0-.43,0,1.32,1.32,0,0,0-1,.77c-.09.15-.11.38,0,.46a1.77,1.77,0,0,0,1.2.32.5.5,0,0,0,.38-.15.84.84,0,0,0,.2-.4,1.17,1.17,0,0,0,.09-.24C143,81.19,143.08,81,143.05,81Z" transform="translate(0 0.01)"/><path id="_Path_53" data-name=" Path 53" class="cls-11" d="M109.09,76.76l-.06-.11a.36.36,0,0,0-.28-.35l-.23-.08a.82.82,0,0,0-.44,0,1.3,1.3,0,0,0-.46.18,1.37,1.37,0,0,0-.51.58c-.09.15-.12.39,0,.47a1.77,1.77,0,0,0,1.2.32.52.52,0,0,0,.37-.16.81.81,0,0,0,.2-.39A.58.58,0,0,0,109,77C109,77,109.12,76.82,109.09,76.76Z" transform="translate(0 0.01)"/><path id="_Path_54" data-name=" Path 54" class="cls-11" d="M74.21,78.75a1.74,1.74,0,0,0-.11-.18.57.57,0,0,0-.45-.58l-.47-.14a1.75,1.75,0,0,0-.72,0,2.68,2.68,0,0,0-.77.3,2.4,2.4,0,0,0-.84,1c-.15.25-.19.64.08.77a3,3,0,0,0,2,.53.82.82,0,0,0,.62-.26,1.36,1.36,0,0,0,.34-.65,1.53,1.53,0,0,0,.14-.41C74.11,79.15,74.26,78.85,74.21,78.75Z" transform="translate(0 0.01)"/><path id="_Path_55" data-name=" Path 55" class="cls-11" d="M77.7,87.68a1.74,1.74,0,0,0-.11-.18.59.59,0,0,0-.45-.59s-.38-.11-.47-.13a1.75,1.75,0,0,0-.72,0,2.68,2.68,0,0,0-.77.3,2.55,2.55,0,0,0-.84,1c-.15.25-.19.64.09.77a2.86,2.86,0,0,0,2,.53.85.85,0,0,0,.62-.26,1.35,1.35,0,0,0,.34-.66,1.49,1.49,0,0,0,.15-.4C77.6,88.08,77.75,87.77,77.7,87.68Z" transform="translate(0 0.01)"/><path id="_Path_56" data-name=" Path 56" class="cls-11" d="M85,81a.75.75,0,0,1-.07-.12.35.35,0,0,0-.27-.35l-.29-.08a.82.82,0,0,0-.44,0,1.52,1.52,0,0,0-.46.18,1.45,1.45,0,0,0-.51.59c-.09.15-.12.38,0,.46a1.77,1.77,0,0,0,1.2.32.5.5,0,0,0,.38-.15.89.89,0,0,0,.2-.4,1.17,1.17,0,0,0,.09-.24C84.92,81.19,85,81,85,81Z" transform="translate(0 0.01)"/><path id="_Path_57" data-name=" Path 57" class="cls-11" d="M98.67,74.7l0-.08a.26.26,0,0,0-.2-.25l-.2-.06a.81.81,0,0,0-.31,0,1.4,1.4,0,0,0-.34.13,1,1,0,0,0-.36.42c-.07.11-.09.28,0,.34a1.24,1.24,0,0,0,.85.23.36.36,0,0,0,.27-.12.51.51,0,0,0,.15-.28.49.49,0,0,0,.06-.17S98.69,74.74,98.67,74.7Z" transform="translate(0 0.01)"/><path id="_Path_58" data-name=" Path 58" class="cls-11" d="M120.18,80.21v-.08a.25.25,0,0,0-.2-.25l-.2-.06a.81.81,0,0,0-.31,0,.83.83,0,0,0-.34.13,1,1,0,0,0-.36.42c-.07.11-.09.28,0,.33.28.13.56.32.86.23a.32.32,0,0,0,.27-.11.76.76,0,0,0,.15-.28.64.64,0,0,0,.06-.18S120.2,80.25,120.18,80.21Z" transform="translate(0 0.01)"/><path id="_Path_59" data-name=" Path 59" class="cls-11" d="M150.58,81.81l-.05-.08a.26.26,0,0,0-.2-.25l-.2-.06a.55.55,0,0,0-.31,0,1,1,0,0,0-.34.13,1,1,0,0,0-.36.42c-.07.11-.09.28,0,.34a1.24,1.24,0,0,0,.85.23.4.4,0,0,0,.27-.12,1.37,1.37,0,0,0,.21-.46C150.52,82,150.6,81.85,150.58,81.81Z" transform="translate(0 0.01)"/><path id="_Path_60" data-name=" Path 60" class="cls-11" d="M191,85.87s-4.18,4.18-5.63,3.46c0,0,7.36,4,15.37-2.77Z" transform="translate(0 0.01)"/><g id="_Group_28" data-name=" Group 28"><path id="_Path_61" data-name=" Path 61" class="cls-11" d="M190.46,82.14s-1.15.59-2.82,1.57c-.83.49-1.79,1.07-2.8,1.73a20.23,20.23,0,0,0-3,2.26A3.2,3.2,0,0,0,181,89a.41.41,0,0,0,0,.22.91.91,0,0,0,.15.23.9.9,0,0,0,.5.26,3.32,3.32,0,0,0,1.47-.15,4.34,4.34,0,0,0,.72-.24,5.6,5.6,0,0,0,.68-.26,19.21,19.21,0,0,0,2.09-1l.81-.39.06.09-.67.6A9.89,9.89,0,0,1,186,89a9.11,9.11,0,0,1-1.12.75,7.12,7.12,0,0,1-1.47.71,3.79,3.79,0,0,1-2,.25A1.63,1.63,0,0,1,180,88.9s0-.06,0-.08a3.85,3.85,0,0,1,1.3-1.73,21.6,21.6,0,0,1,3.19-2.17,32.56,32.56,0,0,1,2.94-1.54c1.74-.85,2.93-1.35,2.93-1.35Z" transform="translate(0 0.01)"/></g><g id="_Group_29" data-name=" Group 29"><path id="_Path_62" data-name=" Path 62" class="cls-11" d="M166.38,74.47a30.23,30.23,0,0,0-3.73,6,18.05,18.05,0,0,0-1.82,6.59,10.39,10.39,0,0,0,.34,3.28,9.16,9.16,0,0,0,1.42,2.89,16.23,16.23,0,0,0,2.19,2.42,25.37,25.37,0,0,0,2.66,2.08l.25.17.05.12c0,.1.15.27.24.41a3.19,3.19,0,0,0,.3.42,5.11,5.11,0,0,0,.73.74c.14.11.29.2.44.3a2.62,2.62,0,0,0,.48.22,2.46,2.46,0,0,0,.53.15,3.7,3.7,0,0,0,.57.07v.2a4.18,4.18,0,0,1-.6.19,2.35,2.35,0,0,1-.65.06,3,3,0,0,1-.67-.07,3,3,0,0,1-.65-.2,4.36,4.36,0,0,1-1.16-.68,5.37,5.37,0,0,1-.51-.44,4.13,4.13,0,0,1-.47-.55l.3.29a13.57,13.57,0,0,1-1.64-.87,12.56,12.56,0,0,1-1.55-1.07,10.72,10.72,0,0,1-2.55-2.86,11.58,11.58,0,0,1-1.5-7.39,18.44,18.44,0,0,1,2.45-6.88,29.11,29.11,0,0,1,4.36-5.7Z" transform="translate(0 0.01)"/></g><g id="_Group_30" data-name=" Group 30"><path id="_Path_63" data-name=" Path 63" class="cls-11" d="M168.9,79.69a14.48,14.48,0,0,0-.52,1.85,17.16,17.16,0,0,0-.32,1.88,15,15,0,0,0-.12,1.89v.94l.08.93.18.91a6.88,6.88,0,0,0,.24.89,4.33,4.33,0,0,0,.31.85,6.16,6.16,0,0,0,.39.82l.47.77c.17.24.38.46.57.69l.29.34.34.29.67.59-.18-.11A20.62,20.62,0,0,0,174,94a8.27,8.27,0,0,0,1.31.19,2.62,2.62,0,0,0,.56,0,.61.61,0,0,0,.19,0h0l-.45.74v-2A17.37,17.37,0,0,0,175.4,91a4.65,4.65,0,0,0-.19-.9,8,8,0,0,0-.29-.82,1.55,1.55,0,0,0-.19-.36,2.39,2.39,0,0,0-.21-.34,2.09,2.09,0,0,0-.24-.28l-.28-.24-.38-.34v-.2a13,13,0,0,1-.1-1.4c0-.46,0-.93,0-1.39a6.57,6.57,0,0,1,.73-2.67l.18.06a9.3,9.3,0,0,0,.12,2.58c.07.43.16.85.25,1.27s.21.84.31,1.22l-.4-.53.57.34a2.86,2.86,0,0,1,.5.42,2.41,2.41,0,0,1,.42.48,3.48,3.48,0,0,1,.34.51,7.58,7.58,0,0,1,.51,1.08,8.62,8.62,0,0,1,.32,1.1,10.77,10.77,0,0,1,.28,2.19,9.91,9.91,0,0,1,0,1.09,4.75,4.75,0,0,1-.09,1.11l-.07.55-.37.18a2.8,2.8,0,0,1-.63.23A4.6,4.6,0,0,1,176,96a6.36,6.36,0,0,1-.87-.06,11.52,11.52,0,0,1-1.52-.35,25.36,25.36,0,0,1-2.81-1l-.13-.06h-.06l-.74-.73-.32-.39-.31-.42c-.2-.28-.42-.55-.6-.84l-.48-.92a7.09,7.09,0,0,1-.38-1,5.7,5.7,0,0,1-.28-1,8.43,8.43,0,0,1-.2-1l-.1-1v-1a5.65,5.65,0,0,1,.06-1,14.1,14.1,0,0,1,.29-1.95,17.92,17.92,0,0,1,1.22-3.71Z" transform="translate(0 0.01)"/></g><path id="_Path_64" data-name=" Path 64" class="cls-16" d="M13.65,86.2" transform="translate(0 0.01)"/><path id="_Path_65" data-name=" Path 65" class="cls-16" d="M9.58,94" transform="translate(0 0.01)"/><g id="_Group_31" data-name=" Group 31"><path id="_Path_66" data-name=" Path 66" class="cls-11" d="M186.1,82.19a3.92,3.92,0,0,1-1.11.58,4.42,4.42,0,0,1-1.25.26,7.21,7.21,0,0,1-1.47-.18,3.76,3.76,0,0,1-.73-.2,3.55,3.55,0,0,1-1.25-.68c-.15-.16-.3-.31-.42-.45l-.26-.45a1.66,1.66,0,0,1-.14-.37l-.1-.31h.1l.16.28a1.17,1.17,0,0,0,.19.3l.31.34.43.31c.18.07.35.18.54.24a3.32,3.32,0,0,0,.62.16,3.7,3.7,0,0,0,.66.07,11.38,11.38,0,0,0,1.31-.07,11.41,11.41,0,0,1,1.17,0,9.71,9.71,0,0,1,1.21.11Z" transform="translate(0 0.01)"/></g><g id="_Group_32" data-name=" Group 32"><path id="_Path_67" data-name=" Path 67" class="cls-11" d="M116.31,100.42a37.44,37.44,0,0,1-1.09,5.13c-.22.84-.5,1.68-.79,2.51a23.9,23.9,0,0,1-1,2.46,22,22,0,0,1-2.65,4.67,11.22,11.22,0,0,1-.89,1.07,8.59,8.59,0,0,1-1,1,9.9,9.9,0,0,1-1.19.85l-.66.34-.71.28-.55.22-.45-.46c-.28-.29-.51-.55-.75-.83s-.46-.56-.67-.84c-.43-.57-.83-1.16-1.21-1.77a25.55,25.55,0,0,1-2-3.76c-.28-.65-.54-1.33-.77-2s-.45-1.35-.62-2a28,28,0,0,1-.73-4.17V103a5.36,5.36,0,0,1,.14-.54,4.19,4.19,0,0,1,.2-.49,3.53,3.53,0,0,1,.57-.92,2.58,2.58,0,0,1,2-1h.17a11.53,11.53,0,0,0,2.23.62,5.75,5.75,0,0,0,1.17.07,3,3,0,0,0,1.14-.29,3.77,3.77,0,0,1-2.34.69,9.82,9.82,0,0,1-2.47-.29h.16a1.79,1.79,0,0,0-1.17.78,3.42,3.42,0,0,0-.32.7,4,4,0,0,0-.16.75v-.18a30.4,30.4,0,0,0,1,3.89c.22.63.44,1.27.69,1.88s.52,1.23.81,1.83a31.16,31.16,0,0,0,1.94,3.48c.37.56.75,1.1,1.15,1.62l.6.78c.21.25.43.51.62.71l-1-.24.51-.19.49-.25a8.64,8.64,0,0,0,.94-.64,11.13,11.13,0,0,0,.88-.8,11.52,11.52,0,0,0,.82-.89,18.93,18.93,0,0,0,1.46-2c.46-.7.89-1.43,1.29-2.17A78.07,78.07,0,0,0,116.31,100.42Z" transform="translate(0 0.01)"/></g><path id="_Path_68" data-name=" Path 68" class="cls-17" d="M103.76,105.6" transform="translate(0 0.01)"/><g id="_Group_33" data-name=" Group 33"><path id="_Path_69" data-name=" Path 69" class="cls-11" d="M103.77,115.15s.5-.41,1.24-1.07a36.09,36.09,0,0,0,2.58-2.56,19.24,19.24,0,0,0,2.2-2.88c.14-.21.22-.42.32-.6a2.06,2.06,0,0,0,.21-.48l.17-.42-.13.44a2.27,2.27,0,0,1-.17.5c-.08.18-.14.41-.26.63a20.51,20.51,0,0,1-2,3.13,41.4,41.4,0,0,1-3.53,4.06.5.5,0,0,1-.71,0h0a.49.49,0,0,1,0-.68l0,0Z" transform="translate(0 0.01)"/></g><g id="_Group_34" data-name=" Group 34"><path id="_Path_70" data-name=" Path 70" class="cls-11" d="M101.05,108.89l.28.07a6,6,0,0,0,.85,0,5.46,5.46,0,0,0,1.21-.2,6.29,6.29,0,0,0,1.34-.55c.21-.13.44-.23.64-.38s.41-.27.59-.43a11.75,11.75,0,0,0,1-.87c.28-.27.47-.53.62-.69l.23-.27-.19.29a8.29,8.29,0,0,1-.55.77,7.51,7.51,0,0,1-.87,1,6.89,6.89,0,0,1-.56.52c-.2.17-.41.34-.62.49a6.82,6.82,0,0,1-2.72,1.16,6.74,6.74,0,0,1-1,.08,2.94,2.94,0,0,1-.42,0Z" transform="translate(0 0.01)"/></g><g id="_Group_35" data-name=" Group 35"><path id="_Path_71" data-name=" Path 71" class="cls-11" d="M76.52,97.05a25.61,25.61,0,0,1-1.81,3.08A33.66,33.66,0,0,1,72.52,103c-.38.47-.79.91-1.2,1.35s-.84.86-1.28,1.27-.9.82-1.37,1.2-1,.74-1.46,1.11l.16-.14a15.81,15.81,0,0,1-1.93,1.82,8.52,8.52,0,0,1-1.16.8,5.07,5.07,0,0,1-.75.34,2.08,2.08,0,0,1-1.21,0,1.58,1.58,0,0,1-.46-.25,1.26,1.26,0,0,1-.32-.37,2.19,2.19,0,0,1-.23-.6,4.57,4.57,0,0,1-.07-.83,7.32,7.32,0,0,1,.08-1.35c.08-.84.18-1.66.23-2.47v.36c-.15-.46-.35-1-.55-1.46s-.43-1-.65-1.46a24.41,24.41,0,0,0-1.56-2.78c-.29-.43-.59-.87-.91-1.29s-.67-.82-1-1.2l-.27-.28c-.12-.12-.23-.24-.34-.37a2.79,2.79,0,0,1-.51-1A1.46,1.46,0,0,1,56,94.14a2,2,0,0,1,.89-.62h1.4l1.26-.14,2.55-.29q-1.2.45-2.43.84c-.41.13-.82.24-1.24.36l-.63.16-.28,0h-.16a1.32,1.32,0,0,0-.41.37v.29a1.49,1.49,0,0,0,.34.45l.25.21.33.29a16,16,0,0,1,1.26,1.21q.59.63,1.11,1.32a23.92,23.92,0,0,1,1.86,2.91,17.07,17.07,0,0,1,.74,1.55l.34.79c.1.28.2.53.31.84V105c-.05.86-.13,1.71-.21,2.53,0,.41-.08.81-.09,1.17a2.94,2.94,0,0,0,0,.42h0a.28.28,0,0,0-.11-.13.6.6,0,0,0-.15-.09h-.08c-.2,0-.06,0,0,0a2,2,0,0,0,.4-.17,7,7,0,0,0,.92-.61,22,22,0,0,0,1.77-1.57l.09-.09h.07a11.7,11.7,0,0,0,1.42-1,12.93,12.93,0,0,1,1.37-1c.91-.71,1.78-1.48,2.63-2.26A70.92,70.92,0,0,0,76.52,97.05Z" transform="translate(0 0.01)"/></g><g id="_Group_36" data-name=" Group 36"><polygon id="_Path_72" data-name=" Path 72" class="cls-11" points="57.96 96.56 62.07 96.14 58.64 98.44 57.96 96.56"/></g><path id="_Path_73" data-name=" Path 73" class="cls-18" d="M61.21,101.42" transform="translate(0 0.01)"/><g id="_Group_37" data-name=" Group 37"><polygon id="_Path_74" data-name=" Path 74" class="cls-11" points="60.78 100.5 67.55 98.36 61.64 102.3 60.78 100.5"/></g><path id="_Path_75" data-name=" Path 75" class="cls-18" d="M62.07,105" transform="translate(0 0.01)"/><g id="_Group_38" data-name=" Group 38"><polygon id="_Path_76" data-name=" Path 76" class="cls-11" points="61.74 104.14 70.57 99.88 62.79 105.83 61.74 104.14"/></g><g id="_Group_39" data-name=" Group 39"><path id="_Path_77" data-name=" Path 77" class="cls-11" d="M44.2,91s1.21-.57,3-1.28a61.21,61.21,0,0,1,6.86-2.27c.63-.18,1.28-.31,1.9-.45s1.26-.24,1.85-.35l1.71-.2,1.58-.09h1.33a6.74,6.74,0,0,1,1,.08l.89.12h-.89a8.34,8.34,0,0,0-1,0,5.64,5.64,0,0,0-1.31.11l-1.53.24c-.54.13-1.11.24-1.69.39s-1.18.32-1.77.51-1.21.39-1.81.62a60.37,60.37,0,0,0-6.44,2.82c-1.72.87-2.79,1.51-2.79,1.51Z" transform="translate(0 0.01)"/></g><g id="_Group_40" data-name=" Group 40"><path id="_Path_78" data-name=" Path 78" class="cls-11" d="M66.41,90.65l11.77,2c3.52.62,7.65,1.28,12.07,2s9.13,1.45,13.86,2.09S113.56,98,118,98.46c2.22.2,4.37.41,6.42.56s4,.24,5.76.29,3.42,0,4.87,0a28.75,28.75,0,0,0,3.74-.3,21.13,21.13,0,0,0,2.37-.47l.83-.22-.81.27a17.43,17.43,0,0,1-2.36.62c-1,.17-2.29.36-3.75.48s-3.1.2-4.9.2-3.74,0-5.8-.12-4.22-.23-6.45-.43c-4.47-.4-9.22-1-14-1.59s-9.45-1.46-13.87-2.22-8.51-1.6-12-2.31-6.42-1.39-8.46-1.84Z" transform="translate(0 0.01)"/></g><g id="_Group_41" data-name=" Group 41"><path id="_Path_79" data-name=" Path 79" class="cls-11" d="M144,103.13s.79-.52,2-1.17a27.32,27.32,0,0,1,4.68-1.94c.44-.14.89-.24,1.32-.36a10.34,10.34,0,0,1,1.31-.24,10.82,10.82,0,0,1,1.24-.12h1.11l.93.09a5.4,5.4,0,0,1,.7.13l.61.14-.62-.07a4.15,4.15,0,0,0-.7-.07h-.92l-1.08.12c-.38.06-.77.16-1.18.24a12.23,12.23,0,0,0-1.23.37c-.42.13-.83.3-1.24.47a27.68,27.68,0,0,0-4.28,2.33c-1.11.75-1.77,1.29-1.77,1.29a.77.77,0,0,1-1.06-.09.75.75,0,0,1,.1-1.06h.06Z" transform="translate(0 0.01)"/></g><g id="_Group_42" data-name=" Group 42"><path id="_Path_80" data-name=" Path 80" class="cls-11" d="M141.63,107.93s2.7-1.31,5.46-2.47c1.38-.57,2.78-1.12,3.86-1.44a6.87,6.87,0,0,1,.75-.19,2.82,2.82,0,0,1,.58-.1,1.21,1.21,0,0,1,.38,0h0a1.57,1.57,0,0,0-.37,0,5,5,0,0,0-.55.17c-.22.08-.45.16-.71.28-1,.45-2.32,1.16-3.6,1.9-2.58,1.48-5.06,3.09-5.06,3.09a.75.75,0,1,1-.82-1.26Z" transform="translate(0 0.01)"/></g><path id="_Path_81" data-name=" Path 81" class="cls-11" d="M41.62,89a1.74,1.74,0,0,0-.11-.18.57.57,0,0,0-.45-.58s-.38-.12-.47-.13a1.46,1.46,0,0,0-.72,0,2.11,2.11,0,0,0-1.61,1.29c-.15.25-.2.64.08.77a2.86,2.86,0,0,0,2,.53.82.82,0,0,0,.62-.26,5.07,5.07,0,0,0,.48-1.06C41.52,89.42,41.67,89.1,41.62,89Z" transform="translate(0 0.01)"/><g id="_Group_43" data-name=" Group 43"><path id="_Path_82" data-name=" Path 82" class="cls-11" d="M179.52,72.14a3.81,3.81,0,0,1-.15,1.16,2.53,2.53,0,0,1-.41.86c-.21.26-.56.45-.79.72A7,7,0,0,0,177,76.49a2.72,2.72,0,0,0-.2.63l-.05.26-.26,0-.11-.27a1,1,0,0,1-.09-.33,3.11,3.11,0,0,1-.06-.44,4.21,4.21,0,0,1,.09-1.12,5.67,5.67,0,0,1,.38-1.21,6.29,6.29,0,0,1,.51-1.16,2.17,2.17,0,0,1,.87-.66,2.49,2.49,0,0,1,1.2-.24Z" transform="translate(0 0.01)"/></g><path id="_Path_83" data-name=" Path 83" class="cls-11" d="M173.15,74.51l-.07-.12a.35.35,0,0,0-.27-.35l-.29-.08a.79.79,0,0,0-.43,0,1.32,1.32,0,0,0-1,.77c-.09.15-.11.38,0,.46a1.77,1.77,0,0,0,1.2.32.46.46,0,0,0,.38-.16.81.81,0,0,0,.2-.39,1.06,1.06,0,0,0,.09-.25C173.09,74.75,173.18,74.56,173.15,74.51Z" transform="translate(0 0.01)"/><g id="_Group_44" data-name=" Group 44"><path id="_Path_84" data-name=" Path 84" class="cls-11" d="M56.46,73.42a25.2,25.2,0,0,1-3.7,1.6,36.21,36.21,0,0,1-3.94,1.15c-.74.14-1.5.3-2.28.41s-1.58.24-2.38.34c-1.58.22-3.18.39-4.69.48-.75.06-1.48.07-2.17.07s-1.35,0-2,0a14.92,14.92,0,0,1-1.64-.16,8.82,8.82,0,0,1-1.25-.21l-1.07-.26v-.14l1.08.15a8.62,8.62,0,0,0,1.24.09,14.41,14.41,0,0,0,1.61,0,10.7,10.7,0,0,0,1.91-.12c.68-.12,1.39-.12,2.12-.24,1.47-.19,3-.47,4.57-.8S47,75,48.39,74.65s2.8-.59,4-.79c2.34-.42,4-.58,4-.58Z" transform="translate(0 0.01)"/></g><path id="_Path_85" data-name=" Path 85" class="cls-11" d="M49.74,80.22l-.07-.11a.35.35,0,0,0-.28-.35l-.28-.08a.82.82,0,0,0-.44,0,1.3,1.3,0,0,0-.46.18,1.58,1.58,0,0,0-.51.58c-.09.16-.12.39,0,.47a1.77,1.77,0,0,0,1.2.32.52.52,0,0,0,.37-.16.92.92,0,0,0,.21-.39,1.06,1.06,0,0,0,.09-.25C49.68,80.42,49.77,80.28,49.74,80.22Z" transform="translate(0 0.01)"/></svg>