<svg id="Layer_1" data-name="Layer 1" xmlns="http://www.w3.org/2000/svg" viewBox="0 0 71.65 71.65"><defs><style>.cls-1{fill:#00abe3;}.cls-2{fill:#fff;}</style></defs><title>twitter</title><rect class="cls-1" width="71.65" height="71.65" rx="17.91" ry="17.91"/><path class="cls-2" d="M151.66,104.19a18.54,18.54,0,0,1-5.83,2.19,9.27,9.27,0,0,0-6.71-2.85,9.12,9.12,0,0,0-9.19,9,9.29,9.29,0,0,0,.24,2.06,26.24,26.24,0,0,1-18.94-9.45,8.92,8.92,0,0,0-1.24,4.55,9,9,0,0,0,4.09,7.53,9.42,9.42,0,0,1-4.17-1.13v.11a9.09,9.09,0,0,0,7.38,8.87,9.75,9.75,0,0,1-2.43.32,9.06,9.06,0,0,1-1.73-.17,9.19,9.19,0,0,0,8.59,6.28,18.62,18.62,0,0,1-11.41,3.88,19.85,19.85,0,0,1-2.2-.13,26.3,26.3,0,0,0,14.09,4.06c16.9,0,26.14-13.78,26.14-25.73,0-.39,0-.78,0-1.17a18.68,18.68,0,0,0,4.58-4.68,18.64,18.64,0,0,1-5.28,1.42A9.06,9.06,0,0,0,151.66,104.19Z" transform="translate(-94.68 -85.61)"/></svg>